<svg id="Grupo_7" data-name="Grupo 7" xmlns="http://www.w3.org/2000/svg" xmlns:xlink="http://www.w3.org/1999/xlink" width="155.092" height="171.156" viewBox="0 0 155.092 171.156">
  <defs>
    <clipPath id="clip-path">
      <path id="Rectángulo_3" data-name="Rectángulo 3" d="M0,0,108.226,6.507l46.866,156.883L40.851,171.156Z" fill="none"/>
    </clipPath>
  </defs>
  <g id="Grupo_2" data-name="Grupo 2">
    <g id="Grupo_1" data-name="Grupo 1" clip-path="url(#clip-path)">
      <path id="Trazado_1" data-name="Trazado 1" d="M151.956,163.6,44.59,170.9a3.855,3.855,0,0,1-1.528-.216,4.745,4.745,0,0,1-1.394-.778,5.2,5.2,0,0,1-1.106-1.22,4.914,4.914,0,0,1-.666-1.538L.8,3.345A2.919,2.919,0,0,1,.764,2.058a2.252,2.252,0,0,1,.5-1.018A2.335,2.335,0,0,1,2.212.391a3.142,3.142,0,0,1,1.3-.18L105.233,6.327a3.641,3.641,0,0,1,1.239.313,4.849,4.849,0,0,1,1.148.719,5.158,5.158,0,0,1,.934,1.02,4.343,4.343,0,0,1,.594,1.217L154,159.745a4.12,4.12,0,0,1,.178,1.433,2.965,2.965,0,0,1-.325,1.2,2.283,2.283,0,0,1-.763.85,2.335,2.335,0,0,1-1.137.37" fill="#fff"/>
    </g>
  </g>
  <path id="A" d="M7.651,11.064a7.457,7.457,0,0,1,2.218.511,8.514,8.514,0,0,1,1.9,1.045,7.225,7.225,0,0,1,1.4,1.32,3.689,3.689,0,0,1,.716,1.34,1.96,1.96,0,0,1,.064.453.941.941,0,0,1-.065.373.634.634,0,0,1-.217.274.945.945,0,0,1-.392.154l.042.167,4.31.2-.042-.166a1.892,1.892,0,0,1-.509-.217,1.738,1.738,0,0,1-.37-.313,3.466,3.466,0,0,1-.3-.4c-.1-.146-.2-.305-.311-.475l-5.5-9.222c-.032-.051-.066-.109-.1-.169s-.069-.124-.1-.188-.062-.128-.088-.19a1.319,1.319,0,0,1-.06-.177.717.717,0,0,1-.023-.243.394.394,0,0,1,.062-.182.41.41,0,0,1,.139-.127.743.743,0,0,1,.207-.077l-.041-.165L6.356,4.356l.041.165a1.214,1.214,0,0,1,.246.081,1.049,1.049,0,0,1,.218.132.831.831,0,0,1,.17.181.694.694,0,0,1,.1.226,1.544,1.544,0,0,1,.041.271,2.037,2.037,0,0,1,0,.264c-.006.087-.015.173-.027.259s-.024.171-.036.257l-1.15,7.7c-.02.132-.043.275-.07.421s-.059.3-.095.446-.077.3-.123.435a3.142,3.142,0,0,1-.154.387,1.174,1.174,0,0,1-.153.235.747.747,0,0,1-.182.155.972.972,0,0,1-.228.1,2.4,2.4,0,0,1-.292.063L4.7,16.3l3.924.181-.041-.168a1.612,1.612,0,0,1-.421-.107,1.655,1.655,0,0,1-.387-.22,1.444,1.444,0,0,1-.308-.32,1.222,1.222,0,0,1-.186-.407,2.316,2.316,0,0,1-.056-.333,2.983,2.983,0,0,1-.012-.329c0-.109.008-.217.018-.324s.021-.213.033-.318Zm4.276.761a7.047,7.047,0,0,0-.982-.695,7.329,7.329,0,0,0-1.061-.513A7.137,7.137,0,0,0,8.79,10.29a6.373,6.373,0,0,0-1.08-.137l.644-4.33Z" transform="translate(9.605 3.435)" fill="#b41818"/>
  <g id="Grupo_4" data-name="Grupo 4">
    <g id="Grupo_3" data-name="Grupo 3" clip-path="url(#clip-path)">
      <path id="Trazado_2" data-name="Trazado 2" d="M9.093,2.026l-.025.052-.051.114c-.021.047-.045.1-.071.165s-.055.132-.084.207c-.067-.079-.131-.152-.189-.218l-.155-.174-.109-.12L8.357,2A5.687,5.687,0,0,0,4.986.219,3.852,3.852,0,0,0,2.137.976a3.113,3.113,0,0,0-1.2,2.491,5.11,5.11,0,0,0,1.61,3.412A11.055,11.055,0,0,0,4.783,8.632c.806.5,1.658.959,2.5,1.471a14.664,14.664,0,0,1,2.46,1.806,10.381,10.381,0,0,1,2.111,2.764v0A5.327,5.327,0,0,1,12.622,12a6.381,6.381,0,0,1,1.588-1.663c.6-.459,1.226-.861,1.785-1.312a4.7,4.7,0,0,0,1.363-1.609,3.715,3.715,0,0,0-.071-3.314A6.628,6.628,0,0,0,14.87,1.5a5.894,5.894,0,0,0-3.24-1A2.842,2.842,0,0,0,9.093,2.026" transform="translate(13.51 25.567)" fill="#b41818"/>
    </g>
  </g>
  <path id="A-2" data-name="A" d="M11.472,10.655A5.729,5.729,0,0,1,9.4,10.323a7.237,7.237,0,0,1-1.834-.961,7.042,7.042,0,0,1-1.4-1.322,4.256,4.256,0,0,1-.773-1.412,2.541,2.541,0,0,1-.1-.494,1.241,1.241,0,0,1,.029-.419A.726.726,0,0,1,5.5,5.393a.829.829,0,0,1,.348-.208L5.8,5.005l-4.008.2.052.18a1.573,1.573,0,0,1,.491.19,1.648,1.648,0,0,1,.369.31,3.681,3.681,0,0,1,.315.412c.1.152.208.319.327.5l5.889,9.736c.034.055.071.115.108.18s.075.132.11.2.069.138.1.205a1.673,1.673,0,0,1,.071.193.977.977,0,0,1,.043.272.536.536,0,0,1-.041.214.456.456,0,0,1-.117.161.658.658,0,0,1-.185.113l.053.182,3.911-.241-.053-.182A.939.939,0,0,1,13,17.769a.9.9,0,0,1-.212-.123.833.833,0,0,1-.288-.427,2.081,2.081,0,0,1-.063-.3,2.821,2.821,0,0,1-.024-.3c0-.1,0-.2,0-.295s.006-.2.009-.293l.325-8.674c.006-.147.013-.305.024-.469s.025-.331.044-.5.042-.331.07-.487a3.97,3.97,0,0,1,.1-.438A1.373,1.373,0,0,1,13.1,5.2a.75.75,0,0,1,.149-.186.826.826,0,0,1,.2-.128,1.875,1.875,0,0,1,.256-.1l-.053-.179-3.555.18.052.179a1.249,1.249,0,0,1,.392.077,1.416,1.416,0,0,1,.37.2,1.442,1.442,0,0,1,.513.746,3,3,0,0,1,.081.359c.02.12.033.24.041.36s.012.239.014.357,0,.236,0,.353Zm-3.987-.391a6.334,6.334,0,0,0,.966.669,6.062,6.062,0,0,0,1.021.457,5.559,5.559,0,0,0,1.032.246,4.815,4.815,0,0,0,1,.035l-.19,4.921Z" transform="translate(126.966 138.511)" fill="#b41818"/>
  <g id="Grupo_6" data-name="Grupo 6">
    <g id="Grupo_5" data-name="Grupo 5" clip-path="url(#clip-path)">
      <path id="Trazado_3" data-name="Trazado 3" d="M11.06,13.426l.018-.058c.01-.031.022-.074.037-.127s.032-.114.051-.184.039-.146.06-.229c.067.079.131.152.189.218l.155.175.109.12.051.055a4.854,4.854,0,0,0,3.2,1.623,3.1,3.1,0,0,0,2.486-1.05,3.608,3.608,0,0,0,.836-2.741,5.9,5.9,0,0,0-1.733-3.469,10.323,10.323,0,0,0-2.134-1.677c-.761-.47-1.56-.888-2.357-1.365A13.544,13.544,0,0,1,9.675,2.994,10.863,10.863,0,0,1,7.56.247v0a6.231,6.231,0,0,1-.491,2.839A6.472,6.472,0,0,1,5.745,4.948c-.512.529-1.061,1-1.543,1.521A5.024,5.024,0,0,0,3.058,8.29a4.582,4.582,0,0,0,.3,3.568,6.682,6.682,0,0,0,2.436,2.629,4.806,4.806,0,0,0,3.068.808,2.648,2.648,0,0,0,2.2-1.869" transform="translate(121.372 121.949)" fill="#b41818"/>
      <path id="Trazado_4" data-name="Trazado 4" d="M24.677,5.079c-.007.017-.028.069-.06.151s-.074.193-.125.329-.109.3-.172.478-.131.382-.2.6c-.188-.219-.365-.423-.527-.607s-.308-.347-.432-.486-.228-.252-.3-.335-.126-.136-.143-.153a15.034,15.034,0,0,0-9.2-4.808A9.956,9.956,0,0,0,5.885,2.637,9.233,9.233,0,0,0,2.835,9.932c.1,2.992,1.486,6.391,4.678,9.769a30.144,30.144,0,0,0,6.235,4.885c2.239,1.381,4.593,2.617,6.932,4.016a39.522,39.522,0,0,1,6.835,4.989,30,30,0,0,1,6,7.838l0-.006,0,.006a16.78,16.78,0,0,1,1.725-7.916,18.025,18.025,0,0,1,4.02-5.026c1.522-1.4,3.134-2.629,4.551-3.992a13.174,13.174,0,0,0,3.365-4.764,11.473,11.473,0,0,0-.637-9.439,18.686,18.686,0,0,0-6.664-7.184A14.9,14.9,0,0,0,31.234.526a7.4,7.4,0,0,0-6.557,4.553" transform="translate(49.578 60.966)" fill="#b41818"/>
      <g id="Trazado_5" data-name="Trazado 5" transform="translate(55.175 64.905)" fill="none" stroke-miterlimit="10">
        <path d="M20.037,5.756c-.005.012-.02.049-.042.106s-.052.137-.087.233-.076.21-.12.338-.092.27-.141.423c-.132-.154-.257-.3-.371-.427s-.217-.245-.3-.342l-.214-.236-.1-.108a10.5,10.5,0,0,0-6.465-3.367,6.923,6.923,0,0,0-5.322,1.71,6.5,6.5,0,0,0-2.1,5.132A10.714,10.714,0,0,0,8.06,16.053a21.12,21.12,0,0,0,4.353,3.414c1.563.966,3.208,1.831,4.842,2.811a27.753,27.753,0,0,1,4.781,3.494,21.02,21.02,0,0,1,4.2,5.48v0a11.64,11.64,0,0,1,1.218-5.519,12.628,12.628,0,0,1,2.835-3.512c1.075-.979,2.215-1.842,3.219-2.8A9.326,9.326,0,0,0,35.9,16.067,8.074,8.074,0,0,0,35.476,9.4,13.116,13.116,0,0,0,30.768,4.32a10.473,10.473,0,0,0-6.109-1.8A5.244,5.244,0,0,0,20.037,5.756Z" stroke="none"/>
        <path d="M 32.77786636352539 47.52334213256836 L 28.46709060668945 39.53287887573242 L 28.48894691467285 47.60467147827148 L 24.18749618530273 31.60585403442383 C 23.53913116455078 30.44927787780762 22.83480262756348 29.45902824401855 22.08519744873047 28.59139060974121 C 21.335693359375 27.72386932373047 20.54053497314453 26.97849655151367 19.71052932739258 26.31197547912598 C 18.88027954101562 25.64525032043457 18.01487350463867 25.05720520019531 17.12526321411133 24.50474739074707 C 16.23515892028809 23.95198249816895 15.3206787109375 23.43474769592285 14.39299201965332 22.91003799438477 C 13.73116397857666 22.53570175170898 13.06338119506836 22.15799140930176 12.39694881439209 21.76290702819824 C 11.73022747039795 21.36763763427734 11.06488609313965 20.95499992370605 10.40830707550049 20.51097679138184 C 9.751494407653809 20.06679534912109 9.103520393371582 19.59125900268555 8.471823692321777 19.07040596008301 C 7.839998245239258 18.54944610595703 7.224563598632812 17.9832592010498 6.63302755355835 17.35794067382812 C 6.201779365539551 16.90166664123535 5.80303430557251 16.43824577331543 5.437332630157471 15.96855163574219 C 5.071683883666992 15.49892997741699 4.739120483398438 15.02308082580566 4.440164089202881 14.54189395904541 C 4.141283988952637 14.06082344055176 3.876031398773193 13.57447624206543 3.644926786422729 13.08371067047119 C 3.413907766342163 12.59312629699707 3.21703028678894 12.0981912612915 3.054803371429443 11.59977149963379 C 2.906762838363647 11.14495468139648 2.789456844329834 10.68903732299805 2.703039646148682 10.23514366149902 C 2.616676568984985 9.781487464904785 2.561168193817139 9.32990837097168 2.536674499511719 8.883513450622559 C 2.512195825576782 8.437412261962891 2.518687009811401 7.996532440185547 2.556290864944458 7.563979625701904 C 2.593868732452393 7.131739139556885 2.662517070770264 6.707861423492432 2.762357711791992 6.29543399810791 C 2.98926043510437 5.358163356781006 3.368024587631226 4.500829219818115 3.871489286422729 3.743186712265015 C 4.3739914894104 2.987000465393066 5.000682353973389 2.330193996429443 5.724621295928955 1.792235970497131 C 6.447165489196777 1.255324721336365 7.266626834869385 0.8367691040039062 8.156388282775879 0.5558290481567383 C 9.044539451599121 0.2754052877426147 10.00292301177979 0.1320385336875916 11.00528717041016 0.1449047327041626 C 11.65949153900146 0.1533029973506927 12.31691932678223 0.2274375557899475 12.97221279144287 0.3646251559257507 C 13.62697505950928 0.5016849040985107 14.2797212600708 0.70172119140625 14.92509841918945 0.9620807766914368 C 15.57009124755859 1.222278952598572 16.20785713195801 1.542778968811035 16.83306884765625 1.920981049537659 C 17.45802116394043 2.299027442932129 18.07057189941406 2.734801769256592 18.66536712646484 3.225764513015747 C 18.9974479675293 2.744901180267334 19.37665748596191 2.320564985275269 19.79888534545898 1.955127358436584 C 20.2205867767334 1.590142130851746 20.68522453308105 1.283896565437317 21.18869781494141 1.038756370544434 C 21.69158554077148 0.7939097881317139 22.23324012756348 0.6100110411643982 22.80962371826172 0.4894292056560516 C 23.38537788391113 0.3689642250537872 23.99581527709961 0.3116678595542908 24.63693618774414 0.3198980987071991 C 25.61666870117188 0.332482248544693 26.63324546813965 0.4990907609462738 27.65072059631348 0.7993700504302979 C 28.66702079772949 1.099302291870117 29.68463897705078 1.532724857330322 30.66783142089844 2.07953143119812 C 31.65029716491699 2.625940561294556 32.59885025024414 3.285810232162476 33.47784423828125 4.039290428161621 C 34.35662841796875 4.792578220367432 35.16633605957031 5.639827251434326 35.87134552001953 6.561360359191895 C 36.18122863769531 6.96640682220459 36.4671630859375 7.381960868835449 36.72770690917969 7.805036544799805 C 36.98832702636719 8.228203773498535 37.22358322143555 8.65892505645752 37.43202209472656 9.094236373901367 C 37.64053726196289 9.529685974121094 37.82225799560547 9.96975040435791 37.9757194519043 10.41145133972168 C 38.12925720214844 10.85334300994873 38.2545166015625 11.29690837860107 38.35005569458008 11.7391471862793 C 38.45477676391602 12.22384357452393 38.52483367919922 12.70497226715088 38.56027603149414 13.18174076080322 C 38.59574508666992 13.65883159637451 38.59654998779297 14.13160610198975 38.56269836425781 14.59928226470947 C 38.52883529663086 15.06731224060059 38.46026611328125 15.53028297424316 38.35699844360352 15.98739719390869 C 38.25365829467773 16.44489669799805 38.11555099487305 16.89657783508301 37.94269561767578 17.34162712097168 C 37.70522689819336 17.95298957824707 37.41372299194336 18.50740814208984 37.08245468139648 19.01844596862793 C 36.75075531005859 19.53014183044434 36.37918853759766 19.99832916259766 35.98208999633789 20.43661117553711 C 35.58447647094727 20.87545585632324 35.1612548828125 21.28429222106934 34.72683715820312 21.67680358886719 C 34.29185104370117 22.06979942321777 33.84563446044922 22.44640159606934 33.40262222290039 22.82029151916504 C 32.7806282043457 23.34522819519043 32.16600036621094 23.86396789550781 31.59245491027832 24.41867637634277 C 31.01790237426758 24.97434997558594 30.48458671569824 25.56608963012695 30.0263671875 26.23630714416504 C 29.56735610961914 26.90769195556641 29.18369102478027 27.65782165527344 28.90940475463867 28.52933692932129 C 28.6346321105957 29.4023609161377 28.4696159362793 30.39722061157227 28.44852828979492 31.55681610107422 L 32.77786636352539 47.52334213256836 Z M 12.17953395843506 4.554620742797852 C 11.57444953918457 4.548911571502686 10.99136352539062 4.642140865325928 10.4485387802124 4.820616245269775 C 9.90510082244873 4.999283313751221 9.401955604553223 5.26340913772583 8.957516670227051 5.599263668060303 C 8.512544631958008 5.935513019561768 8.126413345336914 6.343664646148682 7.817683219909668 6.809904098510742 C 7.508590698242188 7.276694297790527 7.277106761932373 7.801660537719727 7.14189338684082 8.370864868164062 C 7.057519435882568 8.726068496704102 7.00238037109375 9.133852005004883 7.006860733032227 9.587890625 C 7.011343479156494 10.04224109649658 7.075529098510742 10.54288768768311 7.229850292205811 11.08342170715332 C 7.384254932403564 11.62426280975342 7.62887716293335 12.20493412017822 7.994132518768311 12.81890487670898 C 8.359506607055664 13.43308639526367 8.845502853393555 14.08041763305664 9.482395172119141 14.75423526763916 C 9.903068542480469 15.19889736175537 10.3566951751709 15.61076164245605 10.83698081970215 15.99912071228027 C 11.3172025680542 16.38741493225098 11.82400035858154 16.75215148925781 12.35113906860352 17.1026725769043 C 12.87812328338623 17.45308303833008 13.42537975311279 17.78922843933105 13.98670864105225 18.12048721313477 C 14.54781246185303 18.45163154602051 15.12293529510498 18.77785301208496 15.70591163635254 19.10851860046387 C 16.22896194458008 19.40519714355469 16.75626373291016 19.70428466796875 17.28619384765625 20.01334381103516 C 17.81594085693359 20.32228088378906 18.34832954406738 20.64118385314941 18.88176345825195 20.97760772705078 C 19.4150218963623 21.31390571594238 19.9493579864502 21.66773796081543 20.48317718505859 22.0466423034668 C 21.01687431335449 22.42545700073242 21.55010604858398 22.82937049865723 22.08131980895996 23.26594734191895 C 22.32492637634277 23.46615982055664 22.56353759765625 23.66971397399902 22.79725456237793 23.87677383422852 C 23.03097152709961 24.08381652832031 23.25979614257812 24.29434204101562 23.48385047912598 24.50848197937012 C 23.70790481567383 24.72263336181641 23.92717361450195 24.94038963317871 24.14177513122559 25.16190528869629 C 24.35638618469238 25.3834171295166 24.56633567810059 25.60868263244629 24.771728515625 25.83783149719238 C 24.85285758972168 25.60679244995117 24.94056701660156 25.37965965270996 25.03488159179688 25.15630149841309 C 25.12915420532227 24.93305969238281 25.23003005981445 24.71359062194824 25.3375244140625 24.49777221679688 C 25.44498443603516 24.28205680847168 25.55905532836914 24.06999778747559 25.67978286743164 23.8614673614502 C 25.80045127868652 23.65303421020508 25.92776679992676 23.4481372833252 26.06174468994141 23.24663925170898 C 26.35368728637695 22.80757141113281 26.66471290588379 22.4015064239502 26.98919868469238 22.0208854675293 C 27.31333541870117 21.64066505432129 27.6508960723877 21.28581619262695 27.99628448486328 20.94882202148438 C 28.34131050109863 20.61218070983887 28.69415473937988 20.29335021972656 29.04921340942383 19.98481178283691 C 29.40390396118164 19.67660522460938 29.76081085205078 19.37866592407227 30.11434936523438 19.08353996276855 C 30.50796699523926 18.75496482849121 30.89569091796875 18.43129730224609 31.2666015625 18.1032886505127 C 31.63710021972656 17.7756290435791 31.99082946777344 17.44362449645996 32.31686019897461 17.09803581237793 C 32.64255523681641 16.75280380249023 32.94064331054688 16.39400291442871 33.20022964477539 16.01241111755371 C 33.45957565307617 15.63119697570801 33.68051147460938 15.22724151611328 33.85220718383789 14.7913293838501 C 34.1118278503418 14.13211822509766 34.23986053466797 13.49903106689453 34.26922607421875 12.89834117889404 C 34.29854583740234 12.29822731018066 34.22939682006836 11.7302188873291 34.09442138671875 11.20068454742432 C 33.95952606201172 10.67147159576416 33.75885772705078 10.18050098419189 33.52497863769531 9.734264373779297 C 33.29116058349609 9.288166046142578 33.02409744262695 8.886667251586914 32.75632095336914 8.536309242248535 C 32.32687759399414 7.974457263946533 31.82729148864746 7.454296112060547 31.28264999389648 6.989746570587158 C 30.73791313171387 6.525124549865723 30.1479434967041 6.115993976593018 29.53783416748047 5.776339054107666 C 28.92745208740234 5.436516284942627 28.29673957824707 5.166151523590088 27.67086410522461 4.97930908203125 C 27.0445384979248 4.792334079742432 26.42289352416992 4.688961982727051 25.8311767578125 4.683378219604492 C 25.39996337890625 4.67931079864502 24.99583625793457 4.72754955291748 24.62094116210938 4.826773166656494 C 24.24576187133789 4.926064014434814 23.89983177185059 5.076420783996582 23.5853328704834 5.276536464691162 C 23.27058792114258 5.476805686950684 22.9873046875 5.726914405822754 22.7376651763916 6.025550365447998 C 22.48781585693359 6.32443904876709 22.27166366577148 6.671948432922363 22.0914192199707 7.066769123077393 C 22.08133888244629 7.092309474945068 22.06492805480957 7.134963989257812 22.04358291625977 7.192086219787598 C 22.0222225189209 7.249238014221191 21.99592399597168 7.320856094360352 21.96606826782227 7.40431022644043 C 21.93620872497559 7.487779140472412 21.90279006958008 7.583106994628906 21.86720848083496 7.6876540184021 C 21.83162879943848 7.792209148406982 21.79388618469238 7.905997276306152 21.75536727905273 8.026354789733887 L 20.78249168395996 11.06673336029053 L 18.15611457824707 8.001908302307129 C 18.05184936523438 7.880231857299805 17.951904296875 7.765147686004639 17.859130859375 7.659367561340332 C 17.76636123657227 7.553574085235596 17.68076133728027 7.457083225250244 17.60518455505371 7.37257194519043 C 17.52960777282715 7.288053512573242 17.46405220031738 7.21550464630127 17.411376953125 7.157599925994873 C 17.35870170593262 7.09971809387207 17.31889533996582 7.056480407714844 17.2948112487793 7.030585765838623 C 16.89744567871094 6.629748821258545 16.48910903930664 6.275700092315674 16.07268524169922 5.969830513000488 C 15.65619564056396 5.663901805877686 15.23154449462891 5.406118869781494 14.80163478851318 5.197906970977783 C 14.37157440185547 4.98961353302002 13.93617153167725 4.830899238586426 13.49834060668945 4.723212242126465 C 13.06028079986572 4.615460872650146 12.619704246521 4.558772563934326 12.17953395843506 4.554620742797852 Z" stroke="none" fill="#fff"/>
      </g>
      <g id="Trazado_6" data-name="Trazado 6" transform="translate(20.909 46.925)" fill="none" stroke-linecap="round" stroke-miterlimit="10">
        <path d="M100.818,105.457l-69.992,4.006a3.871,3.871,0,0,1-1.52-.229,4.8,4.8,0,0,1-1.386-.783,5.253,5.253,0,0,1-1.1-1.215,4.927,4.927,0,0,1-.667-1.524L.42.343" stroke="none"/>
        <path d="M 100.9183883666992 105.810173034668 L 30.91847801208496 109.8373870849609 C 30.36049270629883 109.8695068359375 29.79818534851074 109.778450012207 29.25936126708984 109.5863342285156 C 28.72025871276855 109.3941192626953 28.20484733581543 109.1007995605469 27.7409725189209 108.728645324707 C 27.27701950073242 108.3564147949219 26.86478424072266 107.9054412841797 26.53205490112305 107.3980712890625 C 26.19940567016602 106.8907852172852 25.94636154174805 106.3273239135742 25.80062675476074 105.730094909668 L 0.08150774240493774 0.3338700234889984 C 0.07025628536939621 0.287764698266983 0.06900139153003693 0.2440879493951797 0.07636149972677231 0.204581007361412 C 0.0837210938334465 0.1650806814432144 0.09970021992921829 0.1297539919614792 0.1229153722524643 0.1003370955586433 C 0.1461306214332581 0.07093029469251633 0.1765845417976379 0.04743250831961632 0.2128980904817581 0.03159453719854355 C 0.2492087334394455 0.01575004495680332 0.2913840711116791 0.007564080413430929 0.3380420506000519 0.008775270543992519 C 0.3846967220306396 0.009986373595893383 0.4314209818840027 0.02047692611813545 0.4759679734706879 0.03841770440340042 C 0.5205129981040955 0.05634995177388191 0.5628822445869446 0.08172844350337982 0.6008251309394836 0.1127093061804771 C 0.6387674808502197 0.1436975449323654 0.6722866296768188 0.1802889555692673 0.6991375684738159 0.2206519693136215 C 0.7259871363639832 0.2610235214233398 0.7461691498756409 0.3051680624485016 0.7574319839477539 0.3512505292892456 L 26.50197792053223 105.6921081542969 C 26.62266159057617 106.1859436035156 26.83201217651367 106.6518173217773 27.10712623596191 107.0712432861328 C 27.38228988647461 107.49072265625 27.72315216064453 107.8636093139648 28.10673713684082 108.1714096069336 C 28.49028205871582 108.4791946411133 28.91642379760742 108.721809387207 29.36217498779297 108.8808822631836 C 29.8077392578125 109.0399169921875 30.27276802062988 109.1154327392578 30.73428916931152 109.0891342163086 L 100.7183456420898 105.1034774780273 C 100.7615051269531 105.1010208129883 100.8054504394531 105.1085891723633 100.8479156494141 105.1243209838867 C 100.8903656005859 105.1400604248047 100.9313735961914 105.1639938354492 100.9687042236328 105.1943435668945 C 101.0060424804688 105.2246932983398 101.0397109985352 105.2614288330078 101.067497253418 105.3028030395508 C 101.0952835083008 105.3441467285156 101.1171875 105.3901062011719 101.1309967041016 105.4388580322266 C 101.1448135375977 105.4876403808594 101.1492385864258 105.5346298217773 101.1453857421875 105.5778045654297 C 101.1415405273438 105.6209564208984 101.1294250488281 105.6603393554688 101.1101989746094 105.6939544677734 C 101.0909652709961 105.7275619506836 101.0646057128906 105.7553634643555 101.0322570800781 105.775390625 C 100.9999160766602 105.7954406738281 100.9615707397461 105.8076782226562 100.9183883666992 105.810173034668 Z" stroke="none" fill="#b41818"/>
      </g>
      <g id="Trazado_7" data-name="Trazado 7" transform="translate(34.421 13.086)" fill="none" stroke-linecap="round" stroke-miterlimit="10">
        <path d="M.4.333,65.411,3.685A3.713,3.713,0,0,1,66.685,4a4.9,4.9,0,0,1,1.179.73,5.205,5.205,0,0,1,.957,1.043,4.411,4.411,0,0,1,.606,1.251l27.842,94.694" stroke="none"/>
        <path d="M 97.36714172363281 102.0490951538086 C 97.32582092285156 102.0502319335938 97.28368377685547 102.0419540405273 97.24291229248047 102.0260162353516 C 97.20211029052734 102.0100708007812 97.16267395019531 101.986457824707 97.12670135498047 101.9569549560547 C 97.09071350097656 101.9274520874023 97.05821990966797 101.8920211791992 97.03130340576172 101.8524398803711 C 97.00439453125 101.8128433227539 96.98310852050781 101.7691040039062 96.96954345703125 101.7229537963867 L 69.13656616210938 7.00685453414917 C 69.01982879638672 6.609591484069824 68.83042907714844 6.227125644683838 68.58798980712891 5.875678539276123 C 68.34560394287109 5.524288177490234 68.05014038085938 5.203811645507812 67.72113037109375 4.930488586425781 C 67.39210510253906 4.657134056091309 67.02947235107422 4.430875778198242 66.65280151367188 4.268002510070801 C 66.2760009765625 4.105068206787109 65.88502502441406 4.005528926849365 65.49950408935547 3.985741138458252 L 0.4848532974720001 0.64882892370224 C 0.4402857422828674 0.6465415954589844 0.3955589532852173 0.6355131268501282 0.352832168340683 0.6175293326377869 C 0.3101073205471039 0.5995447635650635 0.2693913280963898 0.5746057629585266 0.2328435480594635 0.5444933176040649 C 0.1962991058826447 0.5143824815750122 0.1639277786016464 0.4791007936000824 0.1378962695598602 0.4404336810112 C 0.1118652522563934 0.40176922082901 0.09217460453510284 0.3597196638584137 0.08099040389060974 0.3160735368728638 C 0.06980674713850021 0.2724258303642273 0.06818964332342148 0.2313138246536255 0.07483448088169098 0.1943403482437134 C 0.08148261904716492 0.1573702543973923 0.09639524668455124 0.1245414316654205 0.1182752475142479 0.09745559841394424 C 0.1401573270559311 0.07037369906902313 0.1690018624067307 0.04903402924537659 0.203516036272049 0.03504317626357079 C 0.2380312830209732 0.02105432190001011 0.2782191336154938 0.01441215164959431 0.3227726221084595 0.01671996712684631 L 65.323486328125 3.383564233779907 C 65.78932189941406 3.407692909240723 66.26168060302734 3.528171539306641 66.71691131591797 3.725213527679443 C 67.17192840576172 3.922165870666504 67.6099853515625 4.195673942565918 68.00746154785156 4.526050567626953 C 68.40488433837891 4.856381893157959 68.76185607910156 5.243674278259277 69.05474090576172 5.668308258056641 C 69.34769439697266 6.093023300170898 69.57664489746094 6.555241107940674 69.71790313720703 7.035379409790039 L 97.56803131103516 101.7067565917969 C 97.58160400390625 101.7528839111328 97.58615875244141 101.7970581054688 97.58277893066406 101.8374633789062 C 97.57942199707031 101.8778533935547 97.56808471679688 101.9144515991211 97.54991912841797 101.9454193115234 C 97.53175354003906 101.9763946533203 97.5067138671875 102.0017623901367 97.47589874267578 102.0196533203125 C 97.44507598876953 102.0375518798828 97.40845489501953 102.0479583740234 97.36714172363281 102.0490951538086 Z" stroke="none" fill="#b41818"/>
      </g>
    </g>
  </g>
</svg>
