<svg id="fichauser" xmlns="http://www.w3.org/2000/svg" xmlns:xlink="http://www.w3.org/1999/xlink" width="161.779" height="185.529" viewBox="0 0 161.779 185.529">
  <defs>
    <clipPath id="clip-path">
      <rect id="Rectángulo_24" data-name="Rectángulo 24" width="161.779" height="185.529" fill="none"/>
    </clipPath>
    <clipPath id="clip-path-2">
      <path id="Trazado_426" data-name="Trazado 426" d="M106,332a46.592,46.592,0,1,0,46.592-46.592A46.592,46.592,0,0,0,106,332" transform="translate(-106 -285.405)" fill="none"/>
    </clipPath>
  </defs>
  <g id="Grupo_16" data-name="Grupo 16">
    <g id="Grupo_15" data-name="Grupo 15" clip-path="url(#clip-path)">
      <path id="Trazado_420" data-name="Trazado 420" d="M161.779,80.889A80.889,80.889,0,1,1,80.889,0a80.889,80.889,0,0,1,80.889,80.889" fill="#fff"/>
      <path id="Trazado_421" data-name="Trazado 421" d="M80.889,0H78.8l-.06,0h-.393l-.059,0h-.271l-.041,0h-.019l-.061,0h-.015l-.047,0h-.086l-.036,0h-.087l-.037,0h-.025l-.044,0H77.5l-.06,0h-.017l-.043,0h-.024l-.037,0h-.025l-.036,0h-.027l-.035,0h-.026l-.037,0H77.11l-.058,0h-.013l-.049,0h-.026L76.93.1H76.9l-.034,0-.027,0-.033,0H76.78l-.03,0-.031,0h-.031l-.029,0-.058,0-.026,0-.034,0-.029,0-.031,0-.03,0-.031,0-.028,0-.033,0-.028,0-.031,0-.029,0-.028,0-.059,0-.031,0-.029,0-.03,0-.031,0-.03,0L76,.145l-.029,0-.031,0-.032,0-.028,0-.033,0-.028,0-.057,0-.03,0-.03,0-.031,0-.029,0-.03,0-.03,0-.03,0-.031,0-.028,0-.033,0-.028,0-.039,0-.031,0-.048,0-.026,0-.035,0-.028,0-.031,0-.032,0-.028,0L75.1.2l-.03,0-.029,0-.033,0-.028,0-.028,0-.063,0-.024,0-.034,0-.027,0-.033,0-.027,0-.033,0-.026,0-.034,0-.026,0-.033,0-.027,0-.076.006h-.013l-.036,0-.023,0-.035,0-.026,0-.033,0-.026,0-.034,0-.025,0-.035,0-.022,0-.037,0h-.011l-.079.006-.025,0L74,.29l-.025,0-.034,0-.026,0-.034,0-.025,0L73.82.3l-.025,0-.035,0-.021,0-.133.012-.019,0-.038,0-.02,0-.037,0-.023,0-.036,0-.021,0-.039,0-.018,0-.14.013H73.2l-.04,0-.018,0-.04,0-.018,0-.039,0-.02,0-.039,0-.017,0-.043,0h-.008L72.768.4h-.009l-.043,0L72.7.41l-.043,0h-.015L72.6.42l-.015,0-.043,0H72.53l-.2.021h-.011l-.042,0-.017,0-.041,0-.016,0-.041,0-.016,0-.043,0h-.006l-.151.016H71.93l-.043,0-.015,0L71.83.5l-.017,0-.04,0-.016,0-.042,0H71.7l-.2.023h-.011l-.045.005-.013,0-.044.005-.014,0L71.33.559h-.013l-.044.006h-.009l-.2.024-.014,0L71,.6l-.015,0-.042.005-.016,0-.043.005h-.009L70.67.639h-.006l-.046.006-.012,0-.046.006h-.011L70.505.66l-.012,0-.047.006h0L70.234.7h-.01L70.18.7l-.014,0-.045.006h-.01l-.047.006h-.006l-.265.036h-.006L69.74.762h-.01L69.682.77h-.006l-.267.038h0l-.05.007H69.35L69.3.824h-.009l-.049.007h0l-.269.039h0L68.918.88h0l-.051.008h0l-.324.049h0L68.48.946h0l-.053.008h0l-.326.051h0l-.434.07h0a80.348,80.348,0,0,0-11.1,2.647h0l-.051.016-.358.114h0L56.1,3.87h0l-.3.1-.006,0-.044.015-.01,0L55.691,4l-.007,0-.251.083h0l-.047.016-.007,0-.044.015-.01,0-.043.014-.008,0-.243.082-.01,0-.042.014-.01,0-.042.014-.012,0-.042.014-.007,0-.191.065-.009,0-.039.014-.015.005-.037.013-.017.006-.036.012L54.5,4.4l-.039.013-.008,0-.133.046-.015.005-.036.013-.017.006-.035.012-.019.007-.034.012-.02.007-.033.012-.022.007-.033.012-.013,0-.082.029-.008,0-.032.012-.022.008-.031.011-.024.008-.03.011-.025.009-.03.011-.025.009-.028.01-.028.01-.028.01-.042.015-.037.013-.026.009-.028.01-.027.01-.027.01-.028.01-.027.009-.029.011-.025.009-.031.011-.023.008,0,0,5.628,15.512A64.2,64.2,0,0,1,80.889,16.5ZM29.032,18.807c-.285.238-.567.477-.848.719h0l-.043.037-.007.006-.038.033-.008.007-.037.031-.009.008L28,19.681,28,19.688l-.035.03-.01.009-.04.035,0,0-.09.078-.005,0-.039.034-.012.011-.032.028-.014.012-.03.027-.016.014L27.642,20l-.017.016-.026.022-.019.017-.025.022-.018.016-.025.022-.019.017-.025.022-.018.016-.027.024-.035.031-.024.021-.021.019-.021.018L27.3,20.3l-.019.017-.025.022-.017.015-.027.024-.016.014-.027.024-.016.014-.027.024-.015.013-.029.026-.01.009-.033.029,0,0-.12.107h0l-.035.032-.007.006-.034.03-.009.007-.032.029-.01.008-.033.03-.008.007-.034.03-.006.006-.036.033h0l-.243.22h0l-.037.033-.006.005-.036.032,0,0-.037.034,0,0a81.369,81.369,0,0,0-6.038,6.142h0l-.035.039,0,0c-.1.109-.191.217-.287.326l0,0-.034.039,0,0-.034.039,0,0-.035.04h0l-.249.288,0,0-.032.038,0,0-.03.035-.007.009-.029.034-.006.008-.03.035-.005.006-.2.239-.008.009-.028.032-.009.011-.026.031-.011.013-.026.03-.011.013-.026.03-.012.015-.025.029-.011.013-.026.03L19,28.8l-.094.113,0,0-.026.03-.012.014-.024.029-.013.015-.023.027-.014.017-.022.027-.015.017-.021.026-.016.019-.021.026-.016.019-.021.025-.015.018-.022.027-.01.012-.083.1-.015.018-.022.027-.014.017-.023.028-.015.018-.021.026-.016.019-.02.025-.017.021-.019.024-.017.021-.019.023-.019.023-.017.021-.023.028-.014.017-.034.041-.009.011-.03.037-.015.018-.023.028-.013.016-.024.029-.014.017-.023.028-.014.017-.023.028L18,30.008l-.024.03-.011.014-.026.033-.011.014-.028.035-.008.01-.033.04,0,.005-.038.047h0l-.036.044-.01.013-.027.033-.011.014-.026.032-.011.014-.026.033-.011.013-.026.032-.011.014-.027.034-.009.012-.028.036-.008.01-.035.044h0l-.113.142,0,0-.034.042-.006.007-.031.039-.007.009-.03.038-.006.008-.03.038-.008.01-.031.039,0,.006-.036.046h0l-.149.191h0l-.036.047h0l-.035.045,0,.005-.034.044,0,0-.259.336h0a81.034,81.034,0,0,0-5.7,8.49l14.256,8.311a64.55,64.55,0,0,1,14.4-17.052ZM1.278,66.487Q.737,69.5.421,72.585v0q-.02.194-.039.388v.006l0,.049v.01c0,.016,0,.032,0,.048V73.1c0,.017,0,.033,0,.05v.006c-.007.073-.014.147-.021.22h0c0,.017,0,.033,0,.049s0,.007,0,.01l0,.046v.013c0,.015,0,.03,0,.045v.014l0,.044v.013c0,.016,0,.031,0,.047h0c0,.055-.009.109-.014.164v0l0,.046v.013c0,.014,0,.028,0,.042l0,.018c0,.013,0,.027,0,.04s0,.015,0,.02,0,.026,0,.039l0,.02c0,.013,0,.027,0,.04v.015l-.017.2c0,.005,0,.011,0,.016s0,.027,0,.04v.02c0,.013,0,.026,0,.039s0,.015,0,.02l0,.039c0,.008,0,.013,0,.021s0,.026,0,.039v.018c0,.014,0,.027,0,.041v.013c0,.048-.007.1-.011.145,0,.005,0,.011,0,.016s0,.026,0,.039,0,.016,0,.022l0,.037,0,.023c0,.012,0,.024,0,.036l0,.026c0,.011,0,.023,0,.034s0,.017,0,.026,0,.023,0,.035,0,.016,0,.024,0,.024,0,.036v.009L.2,75.213c0,.008,0,.017,0,.025s0,.022,0,.032,0,.017,0,.028,0,.021,0,.032,0,.021,0,.029l0,.031,0,.029c0,.011,0,.022,0,.032s0,.019,0,.028l0,.033c0,.011,0,.016,0,.027s0,.023,0,.034,0,.014,0,.022c0,.027,0,.055-.005.083v.011c0,.012,0,.025,0,.037s0,.017,0,.025,0,.022,0,.034,0,.019,0,.027l0,.033,0,.029,0,.032c0,.008,0,.019,0,.027l0,.034,0,.027,0,.034c0,.008,0,.018,0,.026,0,.042,0,.084-.007.126,0,.008,0,.017,0,.025l0,.034,0,.027c0,.01,0,.021,0,.031l0,.03c0,.01,0,.021,0,.031l0,.029c0,.01,0,.021,0,.031s0,.021,0,.029,0,.021,0,.032l0,.028c0,.01,0,.021,0,.031s0,.025,0,.036l0,.053v.029l0,.033c0,.011,0,.016,0,.027s0,.021,0,.032,0,.022,0,.03,0,.02,0,.03,0,.019,0,.03,0,.02,0,.03,0,.022,0,.032,0,.019,0,.028,0,.024,0,.035,0,.017,0,.027l0,.042v.021c0,.019,0,.038,0,.056s0,.017,0,.025,0,.026,0,.037V77.2l0,.036c0,.009,0,.018,0,.027s0,.024,0,.035v.026c0,.011,0,.025,0,.036v.026l0,.037v.024l0,.044v.018c0,.022,0,.039,0,.061v.017c0,.013,0,.03,0,.044v.023c0,.014,0,.025,0,.038v.026c0,.011,0,.024,0,.035v.028c0,.011,0,.023,0,.034v.027c0,.014,0,.022,0,.035V77.9c0,.014,0,.027,0,.04s0,.014,0,.021,0,.036,0,.058c0,.006,0,.011,0,.017s0,.034,0,.048V78.1c0,.013,0,.027,0,.04s0,.016,0,.024,0,.023,0,.036v.188c0,.008,0,.016,0,.024s0,.032,0,.048v.013c0,.022,0,.039,0,.061s0,.014,0,.021,0,.028,0,.041,0,.016,0,.025v.036c0,.009,0,.018,0,.028v.035c0,.009,0,.018,0,.027v.034c0,.01,0,.019,0,.028v.035c0,.009,0,.017,0,.027v.04c0,.007,0,.014,0,.02s0,.039,0,.061v.062c0,.007,0,.016,0,.023s0,.025,0,.039v.025c0,.014,0,.023,0,.037s0,.017,0,.026,0,.025,0,.036,0,.017,0,.026,0,.024,0,.037,0,.017,0,.025v.125c0,.022,0,.038,0,.059s0,.013,0,.02,0,.028,0,.041,0,.017,0,.025,0,.024,0,.037,0,.017,0,.025,0,.026,0,.037,0,.017,0,.026,0,.024,0,.037,0,.017,0,.025,0,.024,0,.037,0,.016,0,.025,0,.033,0,.049v.012c0,.022,0,.04,0,.062v.015c0,.014,0,.032,0,.046s0,.016,0,.024,0,.024,0,.038,0,.017,0,.026,0,.026,0,.037,0,.016,0,.025,0,.025,0,.038v.024c0,.014,0,.025,0,.038s0,.016,0,.024,0,.03,0,.044v.018c0,.022,0,.041,0,.062v0c0,.019,0,.038,0,.057v.021c0,.014,0,.028,0,.041v.023c0,.014,0,.025,0,.038V80.7c0,.014,0,.025,0,.039v.291c0,.011,0,.029,0,.04v.082c0,.038,0,.083,0,.121V81.3c0,.014,0,.029,0,.042v.021c0,.014,0,.027,0,.04v.022c0,.014,0,.03,0,.043s0,.012,0,.017c0,.022,0,.039,0,.061v0c0,.017,0,.039,0,.055v.02c0,.014,0,.028,0,.041s0,.015,0,.022,0,.026,0,.04,0,.014,0,.021,0,.031,0,.045v.017c0,.022,0,.038,0,.06v.011c0,.017,0,.032,0,.049s0,.015,0,.023,0,.025,0,.038,0,.016,0,.023,0,.027,0,.038,0,.015,0,.023,0,.029,0,.043v.077s0,.01,0,.015,0,.031,0,.045,0,.015,0,.023,0,.025,0,.039,0,.016,0,.024,0,.027,0,.038,0,.015,0,.023,0,.027,0,.041,0,.014,0,.021,0,.037,0,.058c0,.006,0,.012,0,.019s0,.028,0,.041,0,.016,0,.024,0,.026,0,.037,0,.017,0,.026,0,.023,0,.034,0,.017,0,.027v.038c0,.007,0,.015,0,.022s0,.039,0,.057,0,.017,0,.025V82.9c0,.01,0,.02,0,.029s0,.019,0,.03v.031c0,.011,0,.019,0,.03v.028c0,.011,0,.024,0,.035v.035c0,.014,0,.032,0,.046v.028c0,.011,0,.021,0,.031v.061c0,.01,0,.019,0,.029v.094c0,.013,0,.025,0,.038s0,.03,0,.043v.24l0,.05v.033c0,.01,0,.02,0,.03v.06c0,.011,0,.018,0,.029v.031c0,.008,0,.019,0,.027s0,.022,0,.033v.024c0,.021,0,.041,0,.062v.028c0,.011,0,.022,0,.032V84.2c0,.011,0,.022,0,.033s0,.016,0,.027,0,.022,0,.033v.027c0,.01,0,.021,0,.031s0,.019,0,.03,0,.039,0,.06v.024c0,.012,0,.024,0,.036v.021c0,.012,0,.025,0,.037s0,.017,0,.023,0,.024,0,.037v.019l0,.039h0c0,.031,0,.062,0,.093,0,.006,0,.011,0,.017l0,.038v.02l0,.038c0,.005,0,.015,0,.02l0,.039c0,.005,0,.011,0,.016,0,.047,0,.094.007.14v.01l0,.04v.018l0,.038v.019c0,.013,0,.026,0,.039v.016l.008.14v.011c0,.014,0,.028,0,.043v.014c0,.014,0,.028,0,.042v.014c0,.015,0,.029,0,.044v.008l.009.149v.007l0,.045V85.8c0,.014,0,.029,0,.043s0,.011,0,.014,0,.029,0,.043v.008c0,.05.006.1.009.149v.007l0,.045v.011l0,.045v.011c0,.016,0,.031,0,.047,0,.051.007.1.01.154v.008l0,.043v.014l0,.042V86.5q.007.1.014.2v.006c0,.016,0,.031,0,.047v.01c0,.016,0,.031,0,.046v.007c0,.068.01.137.015.2v.005c0,.016,0,.032,0,.049v.006l0,.049v0c.005.069.011.138.016.207v0c0,.016,0,.032,0,.048v.007l0,.048v.006l.017.206v0l0,.048v.008l0,.048v.005l.017.205v.006c0,.017,0,.033,0,.049v0l.023.262v0c0,.017,0,.034,0,.051v0l.024.261v0c0,.017,0,.033,0,.05v0q.013.131.026.261v0l0,.051v0l.026.261v0c0,.017,0,.034.005.051h0c.009.086.018.173.028.26v.007l.005.048v0l.022.206v0l0,.046V89.9l.005.045v.008l.023.2v0c0,.016,0,.031.005.047v.01l0,.044v.011l.023.194,0,.013c0,.013,0,.026,0,.039l0,.019,0,.039,0,.016c0,.014,0,.028.005.041v0c0,.03.007.06.011.09l0,.013c0,.012,0,.025,0,.037l0,.02,0,.036,0,.022,0,.036,0,.02c0,.012,0,.025,0,.037l0,.015.009.072c0,.008,0,.014,0,.022l0,.033,0,.025,0,.031,0,.027,0,.031,0,.027,0,.03,0,.035.006.045c0,.011,0,.022,0,.032s0,.018,0,.027,0,.019,0,.03,0,.019,0,.029l0,.031,0,.026c0,.013,0,.024,0,.037l0,.021c0,.021,0,.035.007.056s0,.014,0,.02l.005.038,0,.025c0,.013,0,.022,0,.035l0,.022.005.039,0,.02c0,.016,0,.031.006.047l0,.011.008.06v.009c0,.016,0,.035.007.051l0,.016c0,.016,0,.028.006.043l0,.018.006.044,0,.016.008.056v0c0,.021.006.041.009.062h0l.008.059a.065.065,0,0,0,0,.008l.007.053V92.4l.008.056v0c.012.084.024.165.036.249v0q.132.9.283,1.792l16.27-2.756a65.282,65.282,0,0,1,.11-22.337ZM24.9,112.705l-14.338,8.169a81.058,81.058,0,0,0,7.186,10.573v0l.035.044,0,.005.034.042,0,0,.034.042,0,0,.227.281,0,0,.036.044,0,0,.033.04.006.008.032.039.006.006.034.041,0,0,.153.186h0l.037.045.006.006.031.038.009.011.029.035.008.01.03.036.008.009.032.038.006.007.033.039.006.007.152.183.007.009.031.037.008.009.03.036.009.011.028.033.011.013.027.032.012.014.027.032.01.012.029.035.009.01.115.136.007.008.03.036.012.014.026.03.014.016.024.027.015.018.024.028.014.016.024.028.014.017.024.028.014.016.025.03.012.014.035.04,0,0,.038.044.011.013.027.031.015.017.023.027.016.018.022.026.016.019.022.025.017.02.021.024.017.019.021.024.018.021.02.023.017.02.021.024.017.02.037.042.017.02.019.022.021.024.017.02.02.023.017.02.021.023.018.02.021.024.016.018.022.026.016.018.022.026.015.017.023.026.017.019.021.025.012.014.06.068v0l.022.025.017.019.022.025.016.017.023.027.014.016.025.028.013.014.024.027.015.017.024.027.014.015.025.028.012.014.027.03.008.009.029.032,0,0,.07.078h0l.03.034.007.008.028.03.011.013.026.028.013.014.026.028.012.014.026.029.012.013.026.029.012.013.027.03.008.009.174.192.006.006.03.033.009.009.028.031.01.011.029.032.008.009.03.033.007.008.032.035,0,0,.181.2,0,0,.034.036,0,0,.032.035.007.007.031.034.006.006.032.035.006.006.034.037h0l.26.279,0,0,.035.038,0,0,.035.038,0,0,.036.038h0l.037.039h0a81.388,81.388,0,0,0,6.36,6.049L39.126,129.9A64.532,64.532,0,0,1,24.9,112.705m33.432,28.513-5.783,15.455q.654.245,1.313.478h0l.3.107h0l.05.017h0l.355.123h0l.406.139h0l.357.12h0l.05.016h0l.305.1h0l.047.015.007,0,.044.014.009,0,.045.015h0l.255.083h0l.049.016h0l.048.016h0l.3.1h0l.049.016h0l.049.015h0l.307.1h0l.05.015h0l.307.094h0l.047.015.007,0,.047.014h0l.251.076.006,0,.046.014.007,0,.046.014.007,0,.047.014h0l.251.074.011,0,.042.012.012,0,.042.012.012,0,.043.013,0,0,.2.057.008,0,.042.012.014,0,.041.012.012,0,.042.012.011,0,.2.057h0l.045.013.01,0,.041.012.015,0,.04.011.014,0,.041.012.012,0,.193.054.009,0,.043.012.012,0,.04.011.016,0,.039.011.016,0,.039.011.012,0,.192.052.01,0,.043.012.012,0,.041.011.015,0,.041.011.012,0,.044.012h0l.146.039.01,0,.04.011.016,0,.039.01.017,0,.038.01.017,0,.04.011.011,0,.146.038h0l.041.011.014,0,.039.01.018,0,.037.009.019.005.037.009.018,0,.038.01.012,0,.134.035.017,0,.036.009.02.005.035.009.021.005.036.009.019,0,.036.009.02.005.037.009.013,0,.13.033.021.005.034.008.022.006.035.009.021.005.035.009.021.005.035.009.021.005.035.009.013,0,.077.019.019,0,.034.008.022.005.034.008.023.006.033.008.024.006.032.008.025.006.031.007.024.006.119.028.023.006.032.007.026.006.031.007.025.006.033.008.024.006.032.008.024.005.033.008.022.005.068.016.019,0,.03.007.028.006.028.007.029.007.03.007.027.006.03.007.026.006.032.007.025.006.031.007.028.006.056.013.027.006.029.007.028.006.029.006.03.007.027.006.03.007.028.006.028.006.029.006.028.006.035.008.047.01.027.006.032.007.027.006.03.007.028.006.03.006.029.006.028.006.029.006.028.006.029.006.028.006.06.013.022,0,.033.007.026.006.031.006.026.006.03.006.028.006.03.006.027.005.031.007.027.006.03.006.038.008.045.01.028.006.031.006.027.006.03.007.028.006.028.006.031.006.028.006.03.006.027.006.03.006.049.01.034.007.028.006.029.006.03.006.028.006.031.006.027.005.031.006.028.006.03.006.027.005.03.006.036.007.04.008.036.007.027.005.031.006.028.005.031.006.027.005.032.006.025.005.034.006.025.005.037.007.021,0,.056.011.02,0,.039.007.024,0,.034.006.026.005.033.006.026,0,.033.006.025,0,.037.007.022,0,.044.008.014,0,.057.011.02,0,.038.007.023,0,.036.007.024,0,.035.007.024,0,.038.007.02,0,.042.008.017,0,.058.011.009,0,.049.009.023,0,.037.006.024,0,.034.006.026,0,.034.006.025,0,.036.006.023,0,.043.008.015,0,.057.01.021,0,.038.007.024,0,.034.006.026,0,.034.006.024,0,.037.007.022,0,.043.007.015,0,.057.01h0l.059.01.016,0,.042.007.022,0,.038.006.021,0,.038.006.022,0,.039.007.02,0,.046.008.012,0,.06.01.009,0,.049.008.022,0,.038.006.022,0,.038.006.023,0,.037.006.022,0,.038.006.021,0,.057.009.061.01.013,0,.046.007.019,0,.039.006.022,0,.038.006.022,0,.038.006.021,0,.043.007.016,0,.06.01h0l.056.009.018,0,.041.006.023,0,.037.006.023,0,.037.006.023,0,.039.006.02,0,.045.007.015,0,.059.009.013,0,.045.007.023,0,.037.006.024,0,.036.005.024,0,.037.006.023,0,.039.006.02,0,.056.008h0l.06.009.017,0,.043.006.021,0,.038.006.023,0,.038.006.021,0,.04.006.019,0,.048.007.011,0,.061.009h0l.058.008.015,0,.044.006.021,0,.039.005.023,0,.037.005.023,0,.039.006.021,0,.045.006.014,0,.059.008.016,0,.044.006.02,0,.039.005.022,0,.038.005.023,0,.039.005.02,0,.041.006.019,0,.119.016.016,0,.044.006.02,0,.038,0,.025,0,.036,0,.024,0,.037,0,.023,0,.04.005.02,0,.058.007.021,0,.039,0,.023,0,.037,0,.025,0,.035,0,.025,0,.036,0,.025,0,.039,0,.02,0,.049.006h.012l.06.007.016,0,.043.005.022,0,.039,0,.022,0,.038,0,.022,0,.039,0,.022,0,.041,0,.019,0,.059.007h.009l.05.006.023,0,.037,0,.025,0,.034,0,.027,0,.034,0,.025,0,.036,0,.025,0,.042,0,.016,0,.059.006.021,0,.039,0,.023,0,.037,0,.025,0,.036,0,.025,0,.035,0,.026,0,.037,0,.022,0,.045,0,.021,0,.052.005.027,0,.033,0,.029,0,.031,0,.028,0,.033,0,.027,0,.034,0,.027,0,.033,0,.027,0,.058.006.018,0,.041,0,.026,0,.034,0,.028,0,.032,0,.027,0,.034,0,.026,0,.035,0,.026,0,.038,0,.022,0,.058.005.023,0,.038,0,.025,0,.035,0,.027,0,.033,0,.027,0,.033,0,.028,0,.032,0,.027,0,.039,0,.041,0,.038,0,.028,0,.031,0,.03,0,.031,0,.029,0,.032,0,.028,0,.034,0,.026,0,.037,0,.023,0,.058,0,.022,0,.038,0,.027,0,.033,0,.028,0,.031,0,.03,0,.03,0,.029,0,.033,0,.028,0,.034,0,.04,0,.042,0,.03,0,.03,0,.031,0,.029,0,.031,0,.029,0,.031,0,.029,0,.031,0,.031,0,.029,0,.033,0,.055,0,.028,0,.032,0,.028,0,.033,0,.028,0,.032,0,.029,0,.032,0,.028,0,.032,0,.026,0,.074.005h.017l.032,0,.027,0,.033,0,.028,0,.032,0,.027,0,.034,0,.027,0,.033,0,.027,0,.034,0h.021l.134.008h.02l.037,0,.023,0,.037,0h.022l.038,0h.021l.039,0h.017l.145.009h.01l.042,0H76.2l.039,0h.021l.039,0h.02l.039,0h.021l.039,0h.015l.142.008h.016l.041,0h.018l.04,0H76.7l.041,0h.016l.042,0h.016l.2.01h.016l.041,0H77.1l.041,0h.018l.042,0h.015l.045,0h.008l.152.007h.011l.043,0h.017l.042,0h.017l.042,0h.017l.043,0h.013l.211.008h.006l.047,0h.013l.045,0H78l.045,0h.013l.047,0h.006l.214.007h.009l.047,0h.071l.047,0h.011l.27.007h.177l.222,0h.175l.278,0h.118l.334,0h0l.161-16.5a64.128,64.128,0,0,1-21.916-4.056m63.34-10.5a64.077,64.077,0,0,1-19.419,10.933l5.472,15.568q2.73-.959,5.366-2.105l.006,0,.045-.019.006,0,.045-.02.006,0,.046-.02h0l.247-.108.005,0,.042-.018.01,0,.039-.017.015-.007.037-.016.016-.007.036-.016.017-.008.036-.016.017-.007.035-.016.016-.007.037-.016.007,0,.13-.059.017-.007.031-.014.022-.01.029-.013.025-.011.028-.013.024-.011.029-.013.026-.012.026-.012.03-.014.023-.01.035-.016.018-.008.046-.021.012-.005.05-.023.014-.006.04-.018.019-.009.034-.016.021-.01.032-.015.021-.01.035-.016.017-.008.038-.017.016-.007.041-.019.012-.005.048-.022.006,0,.109-.051.006,0,.048-.023.011-.005.042-.02.013-.006.042-.02.011-.005.043-.02.012-.006.044-.021.009,0,.05-.024h0l.221-.1h0l.052-.025,0,0,.05-.024.005,0,.051-.025h0l.054-.026h0a80.951,80.951,0,0,0,16.39-10.423ZM144.143,93a63.739,63.739,0,0,1-7.9,20.81l14.172,8.453q1.541-2.584,2.893-5.29h0l.024-.048h0q.1-.194.193-.389v0q.1-.194.19-.388v0l.023-.047h0l.023-.049h0l.165-.343v0l.022-.046,0,0,.022-.047v0l.162-.343h0l.023-.048v0l.022-.047,0,0,.159-.342,0,0,.02-.044,0-.008.02-.043,0-.006.021-.045v0l.113-.247.021-.046,0-.007.02-.043,0-.007.02-.044,0-.006.132-.293v0l.021-.046,0-.005.02-.044,0-.008.019-.043,0-.007.019-.043,0-.006.108-.244v0l.019-.044,0-.009.018-.041,0-.011.018-.04,0-.011.018-.042,0,0,.105-.241,0-.008.017-.041.005-.012.017-.037.007-.016.016-.037.006-.014.017-.039,0-.008.1-.24,0-.007.017-.041.006-.013.017-.039.005-.013.017-.04,0-.011.018-.042,0-.006.083-.2.017-.041.005-.012.016-.039.006-.014.016-.038.006-.015.016-.038.006-.015.016-.038.006-.013.017-.04v0l.058-.14,0-.012.015-.037.007-.016.014-.035.008-.019.014-.033.008-.02.014-.033.008-.019.014-.035.006-.015.016-.038,0-.01.053-.13.006-.015.015-.036.007-.017.014-.035.007-.018.014-.033.008-.021.014-.033.007-.019.014-.035.007-.016.015-.038,0-.007.054-.134.006-.014.014-.036.007-.018.013-.033.009-.022.012-.031.008-.022.013-.032.009-.022.013-.032.008-.02.014-.034.007-.017.047-.12.008-.02.012-.031.009-.023.012-.031.009-.024.011-.029.01-.026.011-.029.01-.025.011-.028.01-.027.011-.029.009-.024.011-.029.02-.052.01-.025.012-.03.01-.026.011-.028.01-.027.011-.028.01-.026.011-.029.01-.025.012-.031.009-.025.011-.028.01-.026.012-.032.008-.022.02-.054.006-.017.014-.037.009-.023.012-.032.009-.025.011-.031.009-.024.012-.032.009-.024.012-.031.009-.024.012-.031.009-.025.014-.037.006-.017.02-.054.006-.017.014-.038.008-.021.013-.033.008-.023.012-.033.008-.023.011-.032.009-.025.011-.031.009-.025.011-.031.009-.024.013-.036.007-.019.02-.054.006-.019.014-.037.007-.02.013-.035.008-.022.012-.033.008-.022.012-.034.008-.022.013-.035.007-.019.014-.039.006-.017.018-.051v0l.021-.057,0-.005.018-.051,0-.012.015-.043.006-.017.014-.04.006-.017.014-.039.006-.017.014-.041.006-.016.015-.042,0-.014.059-.17,0-.012.015-.044.005-.016.014-.041.006-.016.014-.041.005-.016.015-.042,0-.014.016-.047,0-.01.059-.171,0-.009.016-.046.005-.015.014-.042.005-.015.014-.042.005-.016.015-.042,0-.015.016-.047,0-.009.058-.173,0-.007.017-.049,0-.012.015-.046,0-.012.016-.046,0-.011.016-.049,0-.007.018-.055v0l.058-.176v0l.018-.054,0-.008.016-.05,0-.009.017-.05,0-.008.017-.052,0,0,.018-.056v0l.057-.177h0l.018-.056,0-.007.016-.051,0-.006.016-.051,0-.007.017-.052,0-.006.074-.235h0l.018-.056,0-.007.016-.051,0-.007.016-.05,0-.009.016-.052,0-.006.091-.294v0l.017-.055v0l.017-.055v0c.037-.119.072-.236.108-.355v0l.017-.058v0l.017-.057v0c.041-.139.082-.277.123-.416h0q1.094-3.732,1.834-7.607Zm7.474-51.4L137.2,49.632a63.717,63.717,0,0,1,7.275,21.036l16.3-2.594q-.319-2.008-.736-3.979v0l-.012-.055,0-.007c0-.018-.007-.036-.011-.054l0-.007c0-.021-.007-.035-.012-.055v0l-.052-.243V63.66l-.012-.052,0-.013c0-.015-.006-.031-.01-.046l0-.014-.01-.046,0-.014-.011-.049,0-.01-.012-.055v0l-.027-.122v0l-.012-.054,0-.016-.009-.043,0-.019-.009-.04,0-.018L159.794,63l0-.018-.01-.044,0-.015-.012-.051,0-.008-.027-.118,0-.017-.009-.041c0-.007,0-.014-.005-.022l-.008-.035-.006-.025-.008-.033-.006-.025c0-.01,0-.022-.007-.032l-.006-.027c0-.013,0-.02-.008-.033l-.005-.025-.008-.036-.005-.022-.013-.056-.006-.027-.007-.03-.007-.031c0-.01,0-.016-.006-.027l-.007-.031-.006-.027-.007-.032-.006-.024-.008-.032-.006-.025L159.561,62l-.006-.025-.008-.032c0-.008,0-.017-.006-.024l-.03-.124,0-.019-.008-.035-.005-.022c0-.012-.006-.025-.009-.037l0-.019-.009-.038,0-.019-.009-.037c0-.008,0-.013,0-.02l-.009-.036,0-.019c0-.013-.006-.025-.009-.038v0l-.037-.148,0-.015-.01-.039,0-.018-.01-.038,0-.018-.01-.039,0-.017-.01-.038,0-.018-.01-.04,0-.007-.052-.205v0l-.012-.046,0-.01-.012-.045,0-.009-.012-.046,0-.009-.012-.047v0l-.082-.316v0l-.013-.049,0-.007-.013-.05v0q-.049-.186-.1-.372h0a80.4,80.4,0,0,0-7.383-18.185M109.988,5.392l-5.938,15.4A64.168,64.168,0,0,1,123.139,32.3l10.834-12.447q-2.546-2.216-5.271-4.217h0l-.391-.285,0,0-.045-.033,0,0-.045-.033,0,0-.293-.211-.006,0-.042-.03-.008-.006L127.818,15l-.008-.006-.042-.029-.006,0-.041-.029-.008-.006-.2-.139,0,0-.046-.032-.006,0-.042-.03-.009-.006-.039-.028-.01-.007-.038-.027-.011-.008-.042-.029,0,0-.048-.034h0l-.2-.137-.01-.007-.038-.027-.012-.008-.035-.024-.015-.01-.035-.024-.014-.009-.036-.025-.012-.008-.043-.029-.005,0-.148-.1-.009-.006-.039-.027-.012-.008-.036-.025-.015-.01-.034-.023-.015-.01-.034-.024-.015-.01-.036-.025-.012-.008-.039-.026-.011-.007-.1-.067,0,0-.046-.031-.015-.01-.032-.022L126.1,13.8l-.028-.019-.019-.013-.03-.02-.018-.012-.031-.021-.017-.012-.031-.021-.018-.012-.032-.022-.016-.01-.043-.029,0,0-.05-.033-.005,0-.043-.028-.016-.011-.033-.022-.016-.01-.033-.022-.017-.011-.032-.021-.018-.012-.03-.02-.02-.013-.03-.02-.017-.012-.033-.022-.016-.011-.038-.025-.011-.007-.049-.032-.013-.009-.036-.024-.017-.011-.031-.021-.02-.013-.029-.019-.021-.014-.027-.018-.022-.014-.028-.018-.021-.014-.028-.019-.02-.013-.03-.02-.019-.012-.033-.022-.015-.01-.048-.031-.015-.009-.034-.022-.022-.014-.027-.017-.023-.015-.026-.017-.025-.016-.024-.016-.025-.016-.023-.015-.026-.017-.023-.015-.025-.016-.024-.015-.026-.017-.021-.013-.027-.017-.038-.024-.029-.018-.03-.019-.021-.013-.027-.017-.024-.016-.025-.016-.024-.015-.025-.016-.023-.015-.026-.017-.024-.015-.022-.014-.027-.017-.023-.014-.026-.017L124,12.43l-.024-.015-.029-.018-.044-.028-.023-.015-.025-.016-.025-.015-.024-.015-.025-.016-.025-.016-.024-.015-.026-.016-.022-.014-.028-.017-.021-.014-.026-.016-.025-.016-.025-.016-.024-.015-.025-.016-.027-.017-.042-.026-.029-.018-.021-.013-.028-.017-.025-.015L123.311,12l-.027-.017-.022-.014-.027-.017-.024-.015-.026-.016-.023-.014-.026-.016-.024-.015-.025-.016-.022-.014-.027-.017-.012-.007-.066-.04-.017-.011-.03-.018-.019-.012-.029-.017-.02-.012-.029-.018-.02-.012-.028-.017-.022-.013-.028-.017-.023-.014-.026-.016-.024-.014-.027-.016-.021-.013-.028-.017-.017-.01-.062-.037-.017-.011-.031-.018-.018-.011-.03-.018-.02-.012-.028-.017-.021-.013-.028-.017-.023-.013-.028-.017-.019-.012-.031-.018-.018-.01-.031-.019-.017-.01-.032-.019h0L122,11.213h0l-.036-.021-.014-.008-.031-.018-.019-.011-.031-.018-.018-.011-.032-.019-.017-.01-.033-.019-.017-.01-.032-.019-.018-.011-.032-.019-.012-.007-.126-.073-.007,0-.035-.02-.015-.008-.033-.019-.017-.01-.032-.019-.017-.01-.032-.018-.017-.01L121.3,10.8l-.016-.009-.033-.019-.016-.009-.034-.02-.01-.006-.133-.076h0l-.036-.021L121,10.631l-.034-.019-.016-.009-.035-.02-.015-.008-.034-.019-.016-.009-.033-.019-.017-.009-.033-.019-.016-.009-.035-.02-.009,0-.177-.1-.009,0-.037-.021-.014-.008-.035-.02-.015-.008-.034-.019-.017-.009-.035-.019-.012-.007-.038-.021-.01-.006-.04-.022,0,0-.185-.1,0,0-.038-.021-.012-.007-.037-.021-.012-.007-.037-.02-.012-.007-.038-.021-.011-.006-.039-.021-.009-.005-.041-.023h0L119.52,9.8l-.006,0-.042-.023-.007,0-.041-.023-.008,0-.042-.023-.006,0-.043-.023-.005,0-.284-.153,0,0-.043-.023-.007,0-.041-.022-.01-.006-.04-.021-.009-.005-.04-.021-.009,0-.284-.15h0l-.045-.024,0,0-.043-.022-.008,0L118.4,9.2l0,0-.046-.024h0l-.289-.15,0,0L118.011,9l0,0-.045-.023,0,0-.046-.024,0,0-.047-.024h0l-.39-.2h0l-.048-.025-.443-.223h0l-.493-.244h0q-3.171-1.556-6.492-2.838M80.889,0V16.5c.428,0,.862,0,1.29.013L82.5.016C82.073.007,81.649,0,81.219,0h-.329" fill="red"/>
      <path id="Trazado_422" data-name="Trazado 422" d="M115.329,182.076a62.235,62.235,0,0,1-10.1-1.62l.62-2.513a59.577,59.577,0,0,0,9.678,1.552Zm10.225-.047-.222-2.579a59.508,59.508,0,0,0,9.662-1.643l.644,2.507a62.141,62.141,0,0,1-10.084,1.715m-30.026-4.841a62.153,62.153,0,0,1-9.025-4.824l1.4-2.174a59.55,59.55,0,0,0,8.648,4.622Zm49.774-.231-1.049-2.366a59.568,59.568,0,0,0,8.6-4.7l1.424,2.161a62.169,62.169,0,0,1-8.974,4.9M78.394,166.129a62.689,62.689,0,0,1-6.981-7.476l2.03-1.606a60.039,60.039,0,0,0,6.692,7.166Zm83.934-.381-1.758-1.9a60.021,60.021,0,0,0,6.627-7.226l2.045,1.587a62.646,62.646,0,0,1-6.914,7.539m-96.58-15.609a62,62,0,0,1-4.187-9.328L64,139.95a59.385,59.385,0,0,0,4.011,8.937Zm109.083-.5-2.277-1.231a59.354,59.354,0,0,0,3.932-8.983l2.449.838a61.974,61.974,0,0,1-4.1,9.376M58.971,130.914a62.64,62.64,0,0,1-.927-10.185l2.588-.024a60.04,60.04,0,0,0,.888,9.764Zm122.461-.572-2.554-.422a60.129,60.129,0,0,0,.8-9.77q0-.556-.01-1.109l2.588-.048q.011.577.01,1.157a62.729,62.729,0,0,1-.832,10.192M61.34,110.926l-2.558-.4a61.936,61.936,0,0,1,2.4-9.944l2.457.815a59.291,59.291,0,0,0-2.3,9.526m117.347-1.64a59.289,59.289,0,0,0-2.57-9.458l2.433-.883a61.859,61.859,0,0,1,2.683,9.872ZM67.491,92.38,65.2,91.171a62.3,62.3,0,0,1,5.51-8.622l2.059,1.569a59.709,59.709,0,0,0-5.28,8.263m104.531-1.451a59.789,59.789,0,0,0-5.5-8.11l2.015-1.625a62.414,62.414,0,0,1,5.743,8.462ZM79.331,76.83l-1.775-1.883a62.583,62.583,0,0,1,7.992-6.383l1.444,2.148a60,60,0,0,0-7.661,6.118m80.428-1.115a59.965,59.965,0,0,0-7.828-5.905l1.384-2.188a62.552,62.552,0,0,1,8.167,6.161ZM95.547,65.934l-1.071-2.357a61.848,61.848,0,0,1,9.632-3.447l.667,2.5a59.268,59.268,0,0,0-9.228,3.3m47.693-.665a59.235,59.235,0,0,0-9.322-3.043l.6-2.519a61.863,61.863,0,0,1,9.731,3.177ZM114.422,60.9l-.246-2.577a63.33,63.33,0,0,1,10.224-.141l-.174,2.583a60.763,60.763,0,0,0-9.8.135" transform="translate(-39.263 -39.26)" fill="red"/>
      <path id="Trazado_423" data-name="Trazado 423" d="M189.424,133.882A55.542,55.542,0,1,1,133.882,78.34a55.542,55.542,0,0,1,55.542,55.542" transform="translate(-52.993 -52.993)" fill="red"/>
      <path id="Trazado_424" data-name="Trazado 424" d="M227.041,144.308a21.05,21.05,0,1,0-21.05,21.05,21.05,21.05,0,0,0,21.05-21.05" transform="translate(-125.102 -83.377)" fill="#fff"/>
    </g>
  </g>
  <g id="Grupo_18" data-name="Grupo 18" transform="translate(34.297 92.345)">
    <g id="Grupo_17" data-name="Grupo 17" clip-path="url(#clip-path-2)">
      <path id="Trazado_425" data-name="Trazado 425" d="M189.424,107.9a55.542,55.542,0,1,1-55.542-55.542A55.542,55.542,0,0,1,189.424,107.9" transform="translate(-87.29 -127.759)" fill="#fff"/>
    </g>
  </g>
</svg>
