<svg id="q-corazones" xmlns="http://www.w3.org/2000/svg" xmlns:xlink="http://www.w3.org/1999/xlink" width="66.89" height="95.19" viewBox="0 0 66.89 95.19">
  <defs>
    <clipPath id="clip-path">
      <rect id="Rect치ngulo_32" data-name="Rect치ngulo 32" width="66.89" height="95.19" fill="none"/>
    </clipPath>
  </defs>
  <g id="Grupo_25" data-name="Grupo 25">
    <g id="Grupo_24" data-name="Grupo 24" clip-path="url(#clip-path)">
      <path id="Rect치ngulo_31" data-name="Rect치ngulo 31" d="M2.31,0H64.581A2.309,2.309,0,0,1,66.89,2.309V92.881a2.309,2.309,0,0,1-2.309,2.309H2.31A2.31,2.31,0,0,1,0,92.88V2.31A2.31,2.31,0,0,1,2.31,0Z" transform="translate(-0.001)" fill="#fafafa"/>
    </g>
  </g>
  <text id="Q" transform="translate(23.445 32.211)" fill="#b41818" font-size="24.234" font-family="BenguiatStd-Book, ITC Benguiat Std"><tspan x="0" y="0">Q</tspan></text>
  <g id="Grupo_27" data-name="Grupo 27">
    <g id="Grupo_26" data-name="Grupo 26" clip-path="url(#clip-path)">
      <path id="Trazado_432" data-name="Trazado 432" d="M28.769,41.868c-.032.046-.308.444-.647,1-.34-.551-.615-.949-.647-1-5.791-7.7-18.246.92-12.354,9.223,3.451,4.859,10.693,5.308,13,13.405v0c2.312-8.1,9.554-8.547,13-13.405,5.892-8.3-6.563-16.927-12.354-9.223" transform="translate(5.324 15.244)" fill="#b41818"/>
    </g>
  </g>
</svg>
