<svg id="reverso-carta" xmlns="http://www.w3.org/2000/svg" xmlns:xlink="http://www.w3.org/1999/xlink" width="66.889" height="95.188" viewBox="0 0 66.889 95.188">
  <defs>
    <clipPath id="clip-path">
      <rect id="Rectángulo_30" data-name="Rectángulo 30" width="66.889" height="95.188" fill="none"/>
    </clipPath>
  </defs>
  <g id="Grupo_23" data-name="Grupo 23" clip-path="url(#clip-path)">
    <path id="Rectángulo_28" data-name="Rectángulo 28" d="M2.31,0H64.58a2.309,2.309,0,0,1,2.309,2.309v90.57a2.309,2.309,0,0,1-2.309,2.309H2.31A2.31,2.31,0,0,1,0,92.878V2.31A2.31,2.31,0,0,1,2.31,0Z" transform="translate(-0.001)" fill="#fafafa"/>
    <path id="Rectángulo_29" data-name="Rectángulo 29" d="M.925,0H54.39a.925.925,0,0,1,.925.925V82.688a.925.925,0,0,1-.925.925H.924A.924.924,0,0,1,0,82.689V.925A.925.925,0,0,1,.925,0Z" transform="translate(5.787 5.785)" fill="#c42c27"/>
    <path id="Trazado_431" data-name="Trazado 431" d="M10.859,87.768l-.874-.874,3.639-3.638,3.638,3.638-.876.874h3.569l-.874-.874,3.636-3.638,3.639,3.638-.876.874H29.05l-.876-.874,3.639-3.639,3.639,3.639-.874.874h3.569l-.876-.874,3.638-3.638,3.639,3.638-.876.874h3.568l-.874-.874,3.64-3.639,3.636,3.639-.874.874h3.569l-.874-.874L59.1,83.255l.369.37V81.067l-.369.369L55.464,77.8,59.1,74.16l.369.369V71.973l-.369.369L55.464,68.7,59.1,65.065l.369.369V62.876l-.369.369-3.639-3.639L59.1,55.969l.369.368V53.779l-.369.37-3.638-3.638L59.1,46.874l.369.366V44.685l-.369.369-3.638-3.639L59.1,37.776l.369.369V35.589l-.369.369-3.638-3.639L59.1,28.68l.369.37V26.493l-.369.369-3.638-3.639L59.1,19.585l.369.37V17.4l-.369.369-3.638-3.636,3.638-3.64.369.369V8.3l-.369.368L55.464,5.033l.873-.877H52.769l.874.877L50.006,8.669,46.367,5.033l.874-.877H43.673l.876.877L40.909,8.669,37.27,5.033l.876-.877H34.578l.874.877L31.813,8.669,28.176,5.033l.874-.877H25.48l.877.877-3.64,3.636L19.081,5.033l.874-.877H16.386l.876.877L13.624,8.669,9.984,5.033l.874-.877H7.291l.874.877L4.527,8.669,4.157,8.3v2.556l.37-.369,3.638,3.64L4.527,17.766l-.37-.369v2.559l.37-.37,3.638,3.638L4.527,26.862l-.37-.369v2.556l.37-.369,3.638,3.639L4.527,35.958l-.37-.369v2.556l.37-.369,3.638,3.639L4.527,45.054l-.37-.369V47.24l.37-.366,3.638,3.638L4.527,54.149l-.37-.37v2.557l.37-.368,3.638,3.638L4.527,63.245l-.37-.369v2.557l.37-.369L8.165,68.7,4.527,72.34l-.37-.368v2.556l.37-.37L8.165,77.8,4.527,81.436l-.37-.37v2.559l.37-.37,3.638,3.639-.874.874ZM9.984,77.8l3.638-3.638L17.261,77.8l-3.638,3.639ZM30.906,55.057,27.265,58.7l-3.638-3.642,3.638-3.636Zm-7.278-9.093,3.64-3.639,3.638,3.638L27.265,49.6Zm4.548,4.547,3.638-3.636,3.639,3.638-3.639,3.638Zm4.55-4.548,3.636-3.638L40,45.963,36.361,49.6Zm3.636,5.459L40,55.057,36.361,58.7l-3.636-3.642Zm.909-.909,3.638-3.638,3.64,3.638-3.639,3.638Zm0-9.1,3.639-3.639,3.639,3.639-3.64,3.639Zm-.909-.909-3.636-3.639,3.636-3.638L40,36.867Zm-.909.909-3.639,3.638-3.638-3.638,3.638-3.639Zm-8.184-.909-3.64-3.639,3.638-3.638,3.64,3.638Zm-.91.909-3.639,3.639-3.638-3.639,3.636-3.639Zm0,9.095-3.64,3.639-3.636-3.638,3.638-3.638Zm0,9.1-3.64,3.639-3.636-3.639,3.636-3.638Zm.908.909,3.64,3.639-3.638,3.639-3.64-3.639Zm.91-.909,3.638-3.638,3.639,3.638-3.639,3.639Zm8.186.909L40,64.154l-3.64,3.638-3.636-3.638Zm.91-.909,3.638-3.638,3.639,3.639-3.639,3.638Zm8.186.909L49.1,64.154l-3.638,3.638L41.82,64.154ZM41.82,55.057l3.638-3.636L49.1,55.057,45.458,58.7Zm0-9.093,3.639-3.639L49.1,45.963,45.458,49.6Zm0-9.1,3.638-3.638L49.1,36.867l-3.638,3.639Zm0-9.095,3.638-3.639L49.1,27.772,45.458,31.41Zm2.729,4.547-3.639,3.639-3.638-3.639,3.638-3.639Zm-8.187-.909-3.636-3.638,3.636-3.639L40,27.772Zm-.909.909-3.639,3.639-3.638-3.639,3.638-3.639Zm-8.187-.909-3.638-3.638,3.638-3.639,3.64,3.639Zm-.908.909-3.64,3.639-3.636-3.639,3.636-3.639ZM18.17,31.41l-3.639-3.638,3.639-3.639,3.638,3.639Zm3.638,5.457L18.17,40.506l-3.639-3.639,3.639-3.638Zm0,9.1L18.17,49.6l-3.639-3.639,3.639-3.638Zm0,9.093L18.17,58.7l-3.639-3.642,3.639-3.636Zm0,9.1L18.17,67.792l-3.639-3.638,3.639-3.639Zm0,9.1L18.17,76.89l-3.639-3.639,3.639-3.64ZM19.081,68.7l3.636-3.636,3.64,3.636-3.639,3.64Zm8.187.912,3.638,3.638-3.638,3.638-3.64-3.638Zm.908-.912,3.638-3.636L35.452,68.7l-3.639,3.64Zm8.186.909L40,73.249l-3.64,3.639-3.636-3.638Zm.91-.909,3.638-3.636L44.549,68.7,40.909,72.34Zm8.186.909L49.1,73.249l-3.638,3.639L41.82,73.249Zm.909-.909,3.639-3.636L53.643,68.7,50.006,72.34Zm0-9.093,3.639-3.639,3.638,3.638-3.638,3.639Zm0-9.1,3.64-3.638,3.636,3.638-3.638,3.638Zm0-9.1,3.639-3.639,3.638,3.639-3.636,3.639Zm0-9.1,3.639-3.639,3.638,3.639-3.638,3.639Zm0-9.1,3.639-3.638,3.638,3.638-3.638,3.639Zm-.909-.909L41.82,18.676l3.638-3.64,3.638,3.64Zm-.909.909-3.639,3.639-3.638-3.639,3.638-3.638Zm-8.187-.909-3.636-3.638,3.636-3.64L40,18.676Zm-.909.909-3.639,3.639-3.638-3.639,3.638-3.638Zm-8.187-.909-3.638-3.638,3.638-3.64,3.64,3.64Zm-.908.909-3.64,3.639-3.636-3.639,3.636-3.638Zm-8.187-.909-3.639-3.638,3.639-3.64,3.638,3.64Zm-.909.909-3.638,3.639L9.984,23.223l3.638-3.638Zm0,9.1-3.638,3.639L9.984,32.319l3.639-3.639Zm0,9.1-3.638,3.638L9.984,41.415l3.639-3.639Zm0,9.1-3.638,3.638L9.984,50.511l3.639-3.638Zm0,9.095-3.638,3.639L9.984,59.606l3.639-3.638Zm0,9.095-3.639,3.64L9.984,68.7l3.639-3.636Zm.909,17.282-3.639-3.636,3.639-3.638,3.638,3.638Zm.91-8.184,3.638-3.639L26.357,77.8l-3.64,3.64Zm8.184,8.184-3.638-3.636,3.64-3.638,3.638,3.636Zm.91-8.186,3.638-3.638L35.452,77.8l-3.639,3.639Zm8.186,8.186-3.636-3.638,3.636-3.636L40,82.345ZM37.27,77.8l3.639-3.639L44.549,77.8l-3.639,3.639Zm8.187,8.186L41.82,82.345l3.638-3.636L49.1,82.345Zm.909-8.186,3.639-3.639L53.643,77.8l-3.636,3.639Zm11.825,4.548-3.639,3.638-3.636-3.638,3.636-3.636Zm0-9.095-3.639,3.638-3.636-3.639,3.636-3.639Zm0-9.1-3.639,3.638-3.638-3.638,3.638-3.639Zm0-9.1L54.552,58.7l-3.636-3.642,3.636-3.636Zm0-9.093L54.552,49.6l-3.636-3.638,3.636-3.639Zm0-9.1-3.639,3.639-3.636-3.639,3.636-3.638Zm0-9.095L54.552,31.41l-3.636-3.638,3.636-3.639Zm0-9.1-3.639,3.638-3.636-3.638,3.636-3.64ZM54.552,5.941,58.191,9.58l-3.639,3.639-3.636-3.64Zm-.909,8.189-3.638,3.636-3.639-3.638,3.639-3.639ZM45.458,5.941,49.1,9.578l-3.638,3.64L41.82,9.578Zm-.909,8.187-3.639,3.638-3.638-3.638,3.638-3.639ZM36.361,5.941,40,9.578l-3.64,3.64-3.636-3.64Zm-.909,8.187-3.639,3.638-3.638-3.638,3.638-3.639ZM27.265,5.941l3.64,3.638-3.64,3.64-3.638-3.64Zm-.908,8.187-3.64,3.638-3.636-3.638,3.636-3.639ZM18.17,5.941l3.638,3.638-3.638,3.64-3.639-3.64Zm-.909,8.187-3.639,3.638L9.984,14.129l3.639-3.64ZM5.436,9.58,9.074,5.941l3.64,3.638-3.64,3.64Zm0,9.1,3.638-3.64,3.639,3.64L9.074,22.314Zm0,9.1,3.638-3.639,3.64,3.639L9.074,31.41Zm0,9.095,3.638-3.638,3.64,3.638-3.64,3.639Zm0,9.1,3.638-3.639,3.64,3.638L9.074,49.6Zm0,9.093,3.638-3.636,3.64,3.636L9.074,58.7Zm0,9.1,3.638-3.639,3.64,3.639-3.64,3.639Zm0,9.095,3.638-3.636,3.639,3.638L9.074,76.888Zm0,9.1,3.638-3.636,3.64,3.638-3.64,3.636Z" transform="translate(1.63 1.63)" fill="#fff"/>
  </g>
</svg>
